<?xml version="1.0" standalone="no"?>
<!DOCTYPE svg PUBLIC "-//W3C//DTD SVG 20010904//EN"
 "http://www.w3.org/TR/2001/REC-SVG-20010904/DTD/svg10.dtd">
<svg version="1.0" xmlns="http://www.w3.org/2000/svg"
 width="117.000000pt" height="117.000000pt" viewBox="0 0 117.000000 117.000000"
 preserveAspectRatio="xMidYMid meet">
<metadata>
Created by potrace 1.14, written by Peter Selinger 2001-2017
</metadata>
<g transform="translate(0.000000,117.000000) scale(0.100000,-0.100000)"
fill="#000000" stroke="none">
<path d="M548 1133 c-29 -7 -28 -31 1 -53 16 -11 31 -20 34 -20 7 0 110 -63
117 -71 7 -8 44 -22 53 -20 4 0 10 -6 13 -14 3 -8 10 -12 15 -9 5 3 9 1 9 -4
0 -9 27 -20 40 -18 3 1 16 -9 29 -21 13 -12 28 -20 33 -17 4 3 8 1 8 -4 0 -5
14 -15 31 -23 18 -7 42 -22 54 -33 22 -21 22 -24 22 -298 0 -153 2 -281 6
-285 4 -3 7 -1 7 6 0 7 4 9 10 6 5 -3 20 3 32 15 23 21 23 24 24 306 l1 285
-28 19 c-15 11 -32 20 -38 20 -6 0 -11 5 -11 10 0 6 -4 10 -9 10 -6 0 -36 15
-68 34 -125 73 -169 97 -185 103 -10 3 -18 9 -18 14 0 5 -7 9 -15 9 -8 0 -15
5 -15 11 0 5 -4 7 -10 4 -5 -3 -10 -1 -10 5 0 6 -4 8 -10 5 -5 -3 -10 -2 -10
3 0 22 -67 37 -112 25z"/>
<path d="M410 1053 c-8 -3 -18 -11 -22 -17 -4 -6 -11 -11 -15 -11 -4 0 -40
-19 -79 -42 -39 -23 -83 -47 -97 -54 -15 -7 -27 -16 -27 -21 0 -4 -6 -8 -14
-8 -8 0 -27 -10 -41 -22 l-26 -23 0 -283 c-1 -156 1 -285 3 -287 8 -7 139 -85
143 -85 3 0 31 -17 62 -37 32 -20 60 -37 63 -36 7 0 84 -50 91 -60 3 -5 9 -8
13 -7 11 4 76 -33 76 -43 0 -4 5 -5 10 -2 6 3 10 2 10 -3 0 -13 57 -9 72 6 6
6 18 12 25 12 7 0 13 4 13 10 0 5 3 9 8 8 4 -1 18 5 32 13 14 9 69 42 122 73
53 31 100 61 104 67 10 16 11 78 1 72 -4 -2 -7 1 -7 6 0 6 -29 -7 -64 -28 -35
-22 -67 -37 -70 -34 -3 3 -8 -2 -12 -11 -3 -9 -10 -13 -15 -10 -5 3 -9 1 -9
-4 0 -6 -11 -13 -25 -16 -14 -4 -25 -11 -25 -16 0 -6 -5 -10 -11 -10 -6 0 -24
-9 -40 -21 -16 -11 -29 -17 -29 -14 0 4 -7 0 -15 -8 -15 -15 -49 -12 -70 5
-18 16 -178 108 -187 108 -4 0 -8 5 -8 12 0 6 -3 8 -7 5 -3 -4 -12 -2 -20 4
-19 16 -75 48 -95 55 -10 4 -18 10 -18 15 0 5 -7 9 -15 9 -8 0 -17 10 -20 23
-7 32 -11 157 -5 157 3 0 3 67 0 148 -4 124 -2 151 10 164 19 20 147 98 160
98 6 0 10 5 10 11 0 5 4 8 9 4 6 -3 14 2 19 11 5 9 12 15 15 15 11 -2 117 60
117 68 0 10 -56 41 -72 40 -7 0 -20 -3 -28 -6z"/>
<path d="M563 966 c-13 -6 -23 -14 -23 -19 0 -4 -4 -5 -10 -2 -17 11 -11 -11
8 -27 9 -8 51 -33 92 -57 41 -23 82 -46 90 -51 8 -5 40 -23 70 -41 30 -17 58
-36 61 -42 4 -5 7 -91 6 -191 0 -100 3 -187 7 -194 14 -23 82 27 72 53 -3 8
-2 15 2 15 4 0 5 30 2 66 -3 36 -4 67 -1 69 8 9 6 95 -3 98 -5 2 -6 9 -1 17 7
11 11 74 5 83 -1 1 -3 11 -5 22 -2 11 -9 21 -15 23 -6 2 -17 10 -24 18 -8 8
-22 14 -30 14 -9 0 -16 3 -16 8 0 4 -17 15 -37 24 -42 19 -95 50 -103 59 -6 7
-65 39 -100 54 -17 7 -32 8 -47 1z"/>
<path d="M394 865 l-28 -22 27 -17 c62 -37 78 -47 114 -67 87 -49 179 -104
191 -116 9 -8 12 -62 12 -197 0 -112 4 -187 10 -191 19 -12 70 28 71 55 0 14
1 103 1 199 0 199 9 179 -104 239 -33 19 -79 46 -102 60 -23 14 -43 27 -46 27
-3 0 -17 8 -31 18 -50 34 -83 37 -115 12z"/>
<path d="M250 781 c-5 -11 -7 -26 -4 -35 5 -12 124 -86 169 -105 5 -2 16 -10
23 -18 8 -7 18 -11 23 -8 5 4 9 1 9 -5 0 -6 4 -9 9 -6 5 3 12 -1 15 -10 3 -8
10 -13 15 -9 18 11 56 -54 52 -88 -7 -68 -7 -88 1 -93 4 -3 3 -16 -2 -29 -5
-13 -6 -26 -2 -29 7 -4 8 -100 1 -121 -2 -5 0 -19 4 -30 10 -30 44 -28 65 3
15 23 17 49 17 192 -1 91 -5 171 -9 178 -4 7 -2 12 4 12 8 0 8 6 0 20 -6 11
-17 20 -24 20 -8 0 -19 7 -26 15 -7 8 -16 12 -21 9 -5 -3 -9 0 -9 5 0 6 -7 11
-15 11 -8 0 -15 4 -15 9 0 7 -35 22 -48 20 -2 0 -10 8 -18 18 -7 10 -14 14
-14 9 0 -5 -8 -2 -17 6 -33 28 -130 78 -151 78 -12 0 -26 -9 -32 -19z"/>
<path d="M244 648 c-27 -43 1 -88 79 -128 90 -47 89 -45 88 -148 -1 -70 3 -94
15 -106 21 -21 54 -39 61 -32 3 3 5 60 5 128 0 164 -1 170 -11 164 -4 -3 -16
3 -26 14 -10 11 -22 17 -26 14 -5 -3 -9 0 -9 6 0 6 -5 8 -10 5 -6 -3 -13 0
-16 9 -3 8 -19 18 -35 21 -16 4 -29 11 -29 16 0 5 -7 9 -15 9 -8 0 -15 5 -15
12 0 6 -3 8 -7 5 -3 -4 -14 0 -24 9 -14 12 -19 13 -25 2z"/>
<path d="M245 470 c-4 -6 -3 -10 2 -10 4 0 1 -5 -7 -10 -12 -8 -12 -10 -1 -10
10 0 11 -4 3 -12 -13 -16 11 -78 29 -78 7 0 21 -8 31 -17 17 -16 20 -16 36 1
15 15 15 18 2 26 -12 8 -12 10 -1 10 10 0 11 3 2 14 -8 10 -9 16 -1 21 10 6
-8 32 -22 31 -4 -1 -13 6 -20 15 -17 21 -46 31 -53 19z"/>
</g>
</svg>
