<?xml version="1.0" standalone="no"?>
<!DOCTYPE svg PUBLIC "-//W3C//DTD SVG 20010904//EN"
 "http://www.w3.org/TR/2001/REC-SVG-20010904/DTD/svg10.dtd">
<svg version="1.0" xmlns="http://www.w3.org/2000/svg"
 width="426.000000pt" height="426.000000pt" viewBox="0 0 426.000000 426.000000"
 preserveAspectRatio="xMidYMid meet">
<metadata>
Created by potrace 1.14, written by Peter Selinger 2001-2017
</metadata>
<g transform="translate(0.000000,426.000000) scale(0.100000,-0.100000)"
fill="#000000" stroke="none">
<path d="M688 2676 c-10 -7 -18 -18 -18 -24 0 -10 29 -26 43 -24 4 1 7 -2 7
-8 0 -5 7 -10 15 -10 8 0 15 -4 15 -8 0 -5 16 -14 35 -22 19 -8 35 -17 35 -22
0 -4 6 -8 14 -8 8 0 16 -3 18 -7 2 -5 21 -17 43 -29 75 -38 130 -69 135 -76 3
-3 12 -8 20 -10 14 -3 29 -13 55 -35 7 -7 18 -13 24 -13 23 0 28 -47 27 -298
-1 -168 3 -262 9 -262 6 0 3 -5 -5 -10 -11 -7 -7 -10 19 -10 19 0 32 3 28 6
-3 3 4 15 15 26 13 13 18 29 15 44 -2 14 1 24 7 24 7 0 8 3 1 8 -11 7 -15 92
-4 92 3 0 6 7 6 15 0 8 -3 15 -7 15 -3 0 -6 20 -6 45 1 25 6 45 11 45 6 0 3 5
-5 10 -13 9 -13 10 0 10 10 0 11 3 4 8 -13 9 -13 84 1 94 6 5 4 8 -5 8 -13 0
-13 1 0 10 8 5 10 10 4 10 -13 0 -13 90 1 90 6 0 4 4 -3 9 -8 4 -13 11 -13 15
4 32 -3 44 -34 56 -19 8 -35 17 -35 21 0 4 -10 11 -22 15 -13 4 -34 15 -47 25
-13 10 -27 16 -32 13 -5 -3 -9 -1 -9 4 0 5 -20 19 -45 32 -25 13 -45 27 -45
32 0 4 -3 7 -7 6 -11 -3 -76 32 -85 46 -4 6 -8 8 -8 4 0 -4 -21 6 -47 22 -50
32 -97 38 -125 16z"/>
<path d="M590 2610 c-8 -5 -17 -7 -21 -4 -4 2 -12 -3 -19 -11 -7 -8 -16 -12
-21 -9 -5 3 -9 0 -9 -6 0 -6 -4 -9 -9 -6 -5 3 -12 -1 -15 -10 -3 -8 -10 -12
-16 -9 -5 3 -10 2 -10 -4 0 -5 -10 -13 -22 -17 -12 -3 -28 -13 -36 -20 -7 -8
-18 -12 -23 -8 -5 3 -12 -2 -15 -10 -3 -9 -10 -14 -14 -11 -5 3 -13 -2 -18
-11 -5 -9 -13 -16 -18 -16 -20 -1 -54 -18 -54 -28 0 -5 -7 -10 -15 -10 -16 0
-18 -9 -15 -85 0 -27 1 -56 1 -62 -1 -7 -1 -21 -1 -30 0 -10 0 -31 -1 -48 -4
-127 -3 -155 5 -155 6 0 5 -5 -1 -11 -8 -8 -8 -20 -2 -36 5 -13 6 -22 1 -20
-14 10 -4 -132 11 -147 8 -8 17 -13 19 -10 3 2 11 -2 18 -11 7 -8 17 -15 22
-15 5 0 16 -7 25 -15 8 -8 19 -13 23 -10 5 3 14 -4 20 -15 6 -12 17 -19 23
-17 7 2 18 -3 25 -12 11 -13 12 -13 6 -1 -4 8 5 4 19 -9 15 -14 27 -21 27 -17
0 4 7 0 16 -8 8 -9 20 -14 25 -11 5 4 9 -1 9 -9 0 -9 3 -15 8 -14 9 3 145 -73
154 -86 10 -15 79 -15 85 0 3 8 9 12 13 9 5 -3 16 2 24 11 9 8 16 12 16 7 0
-4 7 1 15 11 8 11 15 17 15 13 0 -4 18 4 40 18 22 14 44 25 50 25 5 0 10 5 10
12 0 6 3 8 6 5 4 -3 18 2 32 13 13 11 28 17 33 14 5 -3 8 0 7 8 -2 7 2 12 8
11 19 -4 47 35 45 62 -3 47 -4 52 -18 52 -7 0 -13 -4 -13 -9 0 -5 -4 -7 -9 -4
-5 3 -11 -1 -15 -9 -3 -8 -11 -15 -19 -15 -7 0 -28 -11 -47 -25 -18 -13 -36
-22 -40 -20 -5 3 -11 -2 -14 -11 -3 -8 -10 -12 -16 -9 -5 3 -10 1 -10 -5 0 -6
-4 -9 -9 -6 -5 3 -12 -1 -15 -10 -3 -8 -10 -13 -15 -9 -5 3 -12 1 -16 -5 -4
-6 -27 -21 -53 -34 l-47 -24 -45 26 c-25 14 -48 30 -51 35 -3 5 -9 7 -12 5 -4
-1 -15 5 -27 14 -11 10 -20 14 -20 10 0 -4 -4 -2 -8 3 -4 6 -28 21 -54 34 -27
13 -48 28 -48 34 0 5 -6 7 -14 4 -8 -3 -20 1 -27 9 -7 9 -32 25 -56 36 -24 11
-44 28 -45 37 -2 31 -4 36 -11 49 -5 6 -4 12 2 12 6 0 6 11 1 29 -4 15 -4 34
1 42 4 8 3 19 -4 28 -9 12 -9 13 0 7 16 -9 13 35 -2 46 -6 5 -5 8 4 8 11 0 11
3 1 15 -10 12 -10 15 0 15 10 0 10 3 0 15 -10 12 -10 15 0 15 8 0 9 4 4 13
-11 15 -11 38 -1 55 5 7 3 12 -4 12 -8 0 -8 4 1 15 10 12 10 15 -1 15 -11 0
-11 3 1 11 11 8 12 12 3 16 -9 3 -10 10 -3 22 5 10 6 21 3 25 -3 3 -1 6 6 6 7
0 10 4 7 8 -3 5 10 15 29 22 19 7 31 18 28 23 -3 5 0 8 8 5 7 -2 23 4 33 14
11 10 26 16 34 13 7 -2 11 -1 8 3 -2 4 25 23 60 42 35 19 64 38 64 43 0 4 5 5
10 2 6 -3 10 -1 10 5 0 6 4 9 9 5 6 -3 15 3 20 14 8 14 7 22 -4 31 -8 7 -15 9
-15 4 0 -5 -6 -1 -13 8 -9 11 -18 14 -27 8z"/>
<path d="M700 2514 c-41 -22 -31 -58 20 -69 16 -3 31 -13 34 -22 4 -9 9 -13
13 -10 3 4 12 -1 20 -11 8 -9 11 -11 8 -4 -6 11 -3 11 14 0 12 -7 21 -16 21
-21 0 -4 5 -5 10 -2 6 3 10 2 10 -4 0 -6 11 -13 25 -17 15 -4 22 -11 18 -18
-3 -6 -3 -8 2 -4 8 8 58 -17 83 -39 7 -7 17 -13 21 -13 4 0 7 -88 7 -195 -1
-205 2 -217 43 -189 11 8 21 12 21 7 0 -4 6 3 13 17 8 16 11 37 6 58 -4 17 -4
32 0 32 8 0 6 173 -2 194 -3 8 -3 18 2 20 11 7 2 96 -12 110 -7 6 -24 17 -39
25 -16 8 -28 18 -28 23 0 5 -4 7 -8 4 -5 -3 -24 5 -43 18 -19 13 -44 26 -57
30 -12 4 -20 12 -16 17 3 5 2 8 -3 7 -4 -2 -34 12 -66 31 -32 18 -61 30 -64
27 -3 -3 -11 -2 -17 2 -6 5 -22 3 -36 -4z"/>
<path d="M2468 2479 c-16 -4 -28 -5 -28 -2 0 3 -7 0 -15 -7 -8 -7 -15 -9 -15
-4 0 5 -4 2 -9 -6 -4 -8 -7 -154 -6 -325 0 -203 -3 -315 -10 -324 -8 -12 -7
-13 4 -6 11 6 13 4 8 -8 -7 -20 17 -29 71 -26 l40 3 -2 98 c-1 58 3 99 9 101
9 3 78 -62 115 -109 29 -36 50 -74 43 -74 -5 0 -1 -5 7 -10 14 -10 116 -12
132 -3 9 4 -68 119 -99 149 -13 12 -23 25 -23 28 0 4 -18 25 -40 46 l-40 39
67 72 c38 39 79 84 94 99 14 15 24 31 22 36 -3 9 -81 10 -113 3 -8 -2 -23 -15
-34 -29 -11 -14 -28 -31 -38 -38 -10 -7 -18 -17 -18 -22 0 -10 -69 -80 -79
-80 -3 0 -5 87 -5 192 1 106 -1 198 -5 204 -4 7 -16 8 -33 3z"/>
<path d="M3231 2481 c-8 -5 -23 -8 -34 -5 -20 3 -51 -19 -40 -30 4 -3 0 -6 -7
-6 -10 0 -11 -3 -3 -11 8 -8 8 -20 3 -35 -7 -17 -6 -24 3 -24 8 0 7 -4 -3 -10
-8 -5 -10 -10 -5 -10 10 0 11 -99 1 -125 -3 -8 0 -15 7 -15 8 0 8 -3 -2 -9
-11 -7 -11 -9 0 -14 11 -4 11 -6 1 -6 -7 -1 -10 -6 -7 -12 11 -17 11 -129 0
-129 -5 0 -4 -5 2 -11 8 -8 8 -20 3 -35 -7 -17 -6 -24 3 -24 8 0 7 -4 -3 -10
-8 -5 -10 -10 -5 -10 6 0 11 -9 11 -20 0 -11 -4 -20 -8 -20 -4 0 -3 -12 2 -26
6 -14 8 -29 6 -33 -7 -10 39 -62 48 -54 3 3 6 0 6 -9 0 -8 6 -15 13 -16 6 0
31 -3 55 -6 23 -2 42 0 42 5 0 13 1 16 10 49 9 30 1 42 -30 47 -33 5 -35 30
-35 321 0 160 -3 288 -6 286 -4 -2 -9 0 -11 6 -2 5 -9 6 -17 1z"/>
<path d="M3475 2476 l-50 -11 0 -270 c0 -149 -4 -276 -9 -283 -5 -8 -4 -18 3
-25 6 -6 11 -20 11 -31 1 -23 32 -66 49 -66 6 0 11 -5 11 -11 0 -6 7 -9 15 -6
8 4 17 2 19 -2 5 -7 37 -8 81 -2 6 1 3 6 -5 11 -8 5 -10 10 -5 10 6 0 10 16
11 34 0 19 -3 33 -7 30 -4 -2 -15 3 -23 12 -9 8 -16 12 -16 7 0 -4 -6 1 -12
11 -13 23 -19 234 -6 242 4 3 5 11 1 17 -11 18 -13 96 -2 103 5 3 6 11 2 17
-11 18 -12 90 -1 104 6 7 5 14 -2 18 -5 3 -8 17 -6 30 3 13 1 35 -2 48 -7 22
-9 23 -57 13z"/>
<path d="M2906 2442 c-10 -13 -19 -38 -18 -53 2 -81 123 -86 136 -6 4 24 -12
67 -26 67 -12 0 -15 1 -45 9 -24 7 -31 4 -47 -17z"/>
<path d="M557 2425 c-14 -7 -27 -11 -29 -10 -2 2 -4 -5 -4 -16 0 -12 9 -22 23
-25 13 -4 23 -10 23 -15 0 -5 7 -9 15 -9 8 0 15 -4 15 -10 0 -5 8 -10 19 -10
10 0 24 -7 31 -15 6 -8 21 -17 33 -21 19 -6 30 -13 61 -41 8 -7 16 -9 20 -6 3
4 13 -2 21 -13 8 -10 15 -15 15 -11 0 5 7 1 16 -7 8 -9 20 -14 25 -11 5 4 9
-3 9 -14 0 -12 5 -21 11 -21 5 0 7 -5 4 -11 -10 -16 -12 -129 -2 -129 4 0 5
-6 1 -12 -11 -17 -12 -48 -3 -54 5 -2 4 -16 -1 -29 -6 -17 -6 -25 1 -25 6 0 7
-5 3 -12 -8 -13 -7 -85 1 -99 6 -9 53 16 70 39 11 14 13 162 1 180 -4 7 -3 12
2 12 10 0 8 93 -3 110 -3 5 -2 10 3 10 6 0 8 19 6 42 -4 40 -25 70 -53 76 -7
1 -20 9 -28 17 -8 8 -25 18 -39 21 -14 4 -21 11 -17 18 3 6 3 8 -2 4 -6 -6
-90 35 -105 52 -8 8 -64 38 -92 49 -18 7 -33 6 -51 -4z"/>
<path d="M1983 2405 c-24 -13 -43 -21 -43 -19 0 10 -38 -32 -50 -56 -21 -39
-30 -90 -16 -90 6 0 5 -4 -3 -9 -12 -8 -12 -12 -2 -25 8 -9 10 -16 6 -16 -4 0
-2 -7 5 -15 7 -8 9 -15 4 -15 -5 0 -1 -5 9 -11 9 -5 17 -17 17 -24 0 -8 7 -15
15 -15 8 0 15 -5 15 -11 0 -5 4 -8 9 -5 5 3 14 -1 21 -9 7 -8 21 -15 31 -15
11 0 19 -4 19 -10 0 -5 4 -9 8 -7 18 5 121 -48 131 -67 31 -58 3 -118 -55
-121 -16 -1 -34 -4 -40 -8 -6 -3 -14 -4 -18 0 -3 4 -23 8 -44 9 -20 1 -53 9
-73 18 -35 14 -37 14 -46 -7 -25 -53 -33 -78 -23 -72 5 3 10 2 10 -2 0 -11 60
-34 71 -27 5 3 9 0 9 -6 0 -6 4 -9 8 -6 4 3 25 1 45 -4 21 -4 39 -4 43 1 3 5
12 5 23 0 9 -5 23 -6 30 -1 8 4 24 7 37 5 13 -1 24 2 24 7 0 5 4 6 10 3 16
-10 114 61 104 76 -2 4 0 10 6 14 5 3 10 15 10 26 0 13 4 18 12 13 7 -5 8 -3
3 6 -5 8 -9 30 -10 49 -1 20 -6 45 -10 56 -14 33 -48 75 -61 75 -6 0 -17 7
-24 15 -7 9 -15 13 -18 10 -3 -3 -14 3 -25 12 -15 13 -18 14 -12 3 6 -10 1 -9
-13 3 -11 11 -26 16 -31 12 -6 -3 -11 -1 -11 5 0 6 -4 8 -10 5 -5 -3 -10 -1
-10 4 0 6 -7 11 -15 11 -8 0 -15 5 -15 11 0 5 -3 8 -7 6 -5 -3 -14 1 -21 9 -7
8 -10 14 -7 14 4 0 -1 8 -11 17 -11 11 -13 18 -5 21 6 2 9 7 6 12 -7 11 27 51
45 53 8 2 21 7 29 12 10 5 16 4 19 -3 3 -9 9 -9 23 -2 10 6 19 7 19 3 0 -8 25
-13 72 -16 9 -1 14 -5 12 -9 -3 -4 2 -8 11 -8 9 0 18 12 22 30 3 17 9 30 13
30 3 0 7 7 7 16 0 21 -50 45 -98 47 -21 1 -39 5 -39 8 0 8 -67 5 -76 -4 -4 -4
-12 -3 -18 2 -7 5 -28 -1 -53 -14z"/>
<path d="M406 2339 c-22 -22 -15 -72 9 -63 8 4 15 1 15 -5 0 -10 40 -32 65
-36 6 0 9 -6 7 -13 -1 -7 1 -12 5 -11 16 2 53 -14 53 -23 0 -5 5 -6 10 -3 6 3
10 2 10 -3 0 -6 10 -12 23 -15 12 -4 41 -20 64 -37 l41 -30 2 -167 c0 -91 3
-170 5 -174 3 -4 -1 -10 -7 -12 -10 -4 -10 -6 0 -6 7 -1 11 -5 8 -10 -4 -5 4
-8 16 -6 35 4 58 16 52 26 -3 5 -1 9 3 9 5 0 8 23 7 50 -1 32 2 50 9 50 9 0 9
2 1 8 -7 4 -11 56 -11 144 1 133 0 137 -24 157 -13 11 -29 20 -35 21 -5 0 -19
8 -30 18 -10 10 -23 19 -29 20 -29 6 -45 14 -45 23 0 6 -4 7 -10 4 -5 -3 -10
-1 -10 4 0 6 -9 11 -21 11 -11 0 -17 5 -14 10 3 6 1 11 -4 11 -6 1 -15 2 -21
3 -5 0 -18 9 -30 18 -11 10 -20 15 -20 11 0 -3 -9 2 -20 12 -11 10 -23 15 -27
12 -3 -4 -11 -3 -17 2 -7 5 -18 1 -30 -10z"/>
<path d="M3777 2258 c4 -8 -21 -13 -42 -8 -5 1 -7 -1 -3 -5 3 -4 -8 -19 -25
-35 -27 -24 -32 -35 -33 -81 -1 -30 5 -65 12 -79 8 -14 14 -22 14 -17 0 4 9
-2 20 -13 21 -21 68 -45 83 -42 4 1 7 -3 7 -9 0 -5 4 -8 9 -5 15 10 76 -39 79
-63 6 -36 -44 -59 -77 -36 -11 8 -13 7 -7 -3 7 -11 0 -12 -30 -7 -22 4 -47 8
-56 8 -10 1 -18 4 -18 8 0 4 -8 6 -17 5 -11 -2 -18 -11 -17 -25 1 -11 -2 -21
-7 -21 -14 0 -4 -41 12 -51 8 -5 26 -9 41 -9 15 0 30 -5 33 -10 4 -6 11 -7 18
-3 16 10 57 10 57 0 0 -4 6 -5 13 0 6 4 21 8 32 8 35 2 75 17 75 28 0 6 3 7 6
4 10 -9 54 44 55 66 3 52 2 64 -6 76 -6 10 -4 12 6 6 8 -5 7 0 -4 12 -9 11
-14 23 -10 26 3 4 -1 7 -10 7 -9 0 -17 7 -17 15 0 14 -12 19 -32 16 -5 0 -8 3
-8 8 0 5 -13 12 -30 16 -16 4 -32 11 -35 16 -4 5 -15 9 -26 9 -10 0 -19 5 -19
10 0 6 -7 10 -15 10 -8 0 -16 5 -16 10 -1 6 -2 16 -3 23 -3 18 33 50 50 43 7
-3 14 -2 14 2 0 10 71 3 85 -9 6 -4 17 -4 25 1 8 5 17 7 20 5 3 -2 6 17 7 41
1 24 -1 43 -5 43 -4 -1 -9 0 -12 1 -33 12 -201 19 -193 8z"/>
<path d="M1364 2247 c-12 -7 -11 -14 6 -46 10 -21 17 -41 14 -43 -2 -3 4 -26
15 -51 11 -25 17 -48 14 -51 -4 -3 -1 -6 6 -6 7 0 9 -4 6 -10 -3 -5 -1 -10 5
-10 6 0 9 -4 5 -10 -3 -5 -1 -17 4 -27 23 -45 39 -88 35 -95 -3 -4 0 -8 5 -8
6 0 11 -6 11 -14 0 -8 7 -22 16 -30 9 -10 11 -16 4 -16 -19 0 30 -55 56 -62
13 -3 24 -2 24 3 0 4 7 6 15 3 18 -7 63 36 57 54 -2 7 1 12 7 12 6 0 7 7 4 17
-4 11 -3 14 5 9 8 -5 10 -2 6 8 -3 9 -1 16 5 16 6 0 10 3 9 8 -3 14 25 91 33
87 4 -3 6 3 5 12 -2 10 0 25 4 33 4 8 12 26 18 40 5 14 15 38 21 53 6 16 9 33
6 38 -4 5 -1 9 5 9 6 0 8 5 5 10 -3 6 -1 10 5 10 6 0 8 5 4 11 -3 6 -2 14 4
18 23 14 -7 32 -56 34 -47 2 -57 -3 -53 -25 0 -5 -3 -8 -7 -8 -4 0 -9 -9 -10
-20 -4 -44 -6 -50 -14 -50 -5 0 -7 -4 -4 -9 4 -5 0 -12 -6 -14 -10 -4 -10 -7
0 -15 10 -7 10 -11 -2 -22 -9 -7 -13 -16 -10 -21 3 -5 1 -9 -4 -9 -5 0 -9 -6
-10 -12 0 -7 -3 -20 -5 -28 -16 -59 -20 -70 -29 -70 -5 0 -7 -4 -3 -9 3 -5 1
-12 -5 -16 -9 -6 -14 7 -11 28 0 4 -4 7 -9 7 -5 0 -9 3 -8 8 0 4 -2 16 -6 27
-17 43 -19 50 -22 63 -1 8 -6 21 -10 30 -9 23 -15 43 -19 67 -1 11 -7 31 -13
45 -5 14 -8 28 -6 31 10 18 -94 31 -122 16z"/>
<path d="M2922 2252 c-22 -3 -23 -8 -19 -47 2 -24 -1 -49 -7 -55 -5 -5 -6 -10
-1 -10 12 0 12 -90 1 -108 -4 -6 -4 -12 1 -12 10 0 10 -91 -1 -108 -4 -6 -4
-12 1 -12 10 0 10 -91 0 -107 -10 -16 21 -25 76 -22 l44 3 -2 88 c-2 63 1 86
9 81 8 -5 8 -3 -1 8 -14 17 -13 111 2 121 6 5 6 8 -2 8 -8 0 -11 21 -9 73 2
39 0 79 -3 87 -6 15 -41 19 -89 12z"/>
<path d="M395 2202 c-19 -13 -13 -69 8 -83 11 -8 28 -21 38 -31 9 -9 20 -14
23 -10 3 3 6 0 6 -7 0 -7 5 -9 10 -6 6 3 10 3 10 -2 0 -4 14 -14 30 -21 17 -8
30 -20 30 -28 0 -8 4 -14 8 -14 9 0 8 -42 -2 -58 -4 -7 -3 -12 3 -12 7 0 7 -8
1 -25 -6 -16 -6 -25 0 -25 6 0 6 -9 0 -25 -8 -22 -5 -28 26 -49 20 -13 42 -22
48 -20 8 3 11 46 11 138 0 134 -8 166 -40 166 -7 0 -18 7 -25 15 -7 9 -15 13
-17 11 -3 -3 -12 1 -19 7 -34 28 -40 32 -54 35 -8 2 -17 8 -18 13 -2 5 -8 7
-13 3 -5 -3 -9 0 -9 6 0 6 -5 8 -10 5 -6 -3 -13 1 -16 9 -7 18 -14 19 -29 8z"/>
<path d="M396 2021 c-5 -7 -9 -57 -7 -88 1 -13 7 -22 14 -20 6 1 11 -4 9 -12
-2 -8 3 -11 12 -8 8 3 20 0 26 -8 21 -25 45 -14 43 19 -1 17 -2 44 -2 60 -1
23 -5 27 -20 23 -14 -3 -18 -1 -14 11 5 12 1 14 -20 10 -20 -4 -25 -2 -17 7 7
8 5 12 -6 12 -8 0 -16 -3 -18 -6z"/>
</g>
</svg>
