<?xml version="1.0" standalone="no"?>
<!DOCTYPE svg PUBLIC "-//W3C//DTD SVG 20010904//EN"
 "http://www.w3.org/TR/2001/REC-SVG-20010904/DTD/svg10.dtd">
<svg version="1.0" xmlns="http://www.w3.org/2000/svg"
 width="96.000000pt" height="96.000000pt" viewBox="0 0 96.000000 96.000000"
 preserveAspectRatio="xMidYMid meet">
<metadata>
Created by potrace 1.14, written by Peter Selinger 2001-2017
</metadata>
<g transform="translate(0.000000,96.000000) scale(0.100000,-0.100000)"
fill="#000000" stroke="none">
<path d="M444 923 c-24 -17 -14 -26 96 -89 47 -27 87 -51 90 -54 3 -3 36 -21
74 -40 37 -19 81 -46 96 -60 l27 -26 -1 -222 c-1 -148 3 -223 10 -226 5 -2 21
4 33 13 23 17 23 19 23 250 0 234 -4 261 -37 261 -8 0 -15 3 -17 8 -3 7 -69
45 -115 67 -13 5 -23 13 -23 18 0 4 -5 7 -11 7 -6 0 -24 9 -40 21 -16 11 -29
17 -29 12 0 -4 -4 -3 -8 3 -12 18 -100 66 -125 68 -13 2 -32 -3 -43 -11z"/>
<path d="M280 830 c-36 -21 -71 -43 -77 -50 -7 -6 -13 -8 -13 -5 0 4 -13 -3
-30 -15 -16 -12 -30 -18 -30 -15 0 4 -7 0 -15 -8 -8 -9 -20 -17 -27 -19 -10
-4 -13 -58 -14 -234 -1 -126 3 -236 7 -245 9 -17 118 -85 132 -81 4 1 7 -2 7
-8 0 -5 7 -10 15 -10 8 0 15 -4 15 -9 0 -5 8 -11 18 -14 24 -8 96 -50 104 -62
4 -5 8 -6 8 -2 0 5 7 1 16 -7 8 -9 21 -16 28 -16 8 0 19 -6 25 -14 22 -26 73
-6 228 90 13 8 24 13 26 12 1 -2 10 4 20 12 45 38 54 51 49 75 -5 30 -15 31
-53 4 -16 -11 -29 -17 -29 -12 0 4 -4 3 -8 -3 -4 -6 -49 -34 -100 -63 -73 -42
-97 -51 -115 -44 -13 4 -91 48 -174 97 l-152 90 -3 113 c-2 62 1 113 5 113 4
0 3 9 -3 20 -6 11 -7 20 -3 20 4 0 8 20 8 45 0 25 -3 45 -8 45 -4 0 0 14 8 30
9 17 20 28 25 25 4 -3 10 -2 12 3 4 9 137 90 191 115 41 19 46 33 20 53 -26
20 -41 16 -113 -26z"/>
<path d="M453 790 c-34 -14 -28 -32 20 -59 23 -13 74 -42 112 -65 39 -22 73
-40 76 -39 4 1 15 -7 25 -18 16 -18 19 -40 20 -172 1 -84 2 -155 3 -160 0 -4
15 -1 31 8 22 11 30 23 31 43 0 44 1 255 0 284 -1 24 -13 34 -83 75 -46 27
-92 53 -103 60 -27 16 -103 53 -107 52 -2 0 -13 -4 -25 -9z"/>
<path d="M333 718 c-45 -22 -37 -28 197 -160 19 -11 39 -28 44 -37 6 -9 9 -80
8 -158 -1 -113 2 -144 13 -153 11 -9 15 -9 15 -1 0 6 6 11 14 11 23 0 26 24
26 180 0 170 0 169 -90 218 -30 17 -86 49 -125 71 -77 45 -71 44 -102 29z"/>
<path d="M206 639 c-14 -20 -13 -23 7 -39 12 -9 68 -43 124 -74 56 -32 106
-63 112 -70 11 -13 17 -228 7 -245 -4 -6 -1 -21 5 -33 7 -13 11 -25 9 -28 -2
-3 4 -6 13 -8 35 -7 45 36 44 195 0 127 -3 155 -16 166 -25 21 -267 157 -279
157 -6 0 -18 -10 -26 -21z"/>
<path d="M195 511 c1 -36 14 -53 58 -76 20 -11 37 -23 37 -28 0 -4 4 -6 10 -2
19 12 38 -39 36 -95 -2 -59 16 -110 39 -110 8 0 18 0 22 0 12 0 10 207 -2 222
-5 8 -32 27 -60 43 -27 15 -66 37 -85 49 -48 28 -56 28 -55 -3z"/>
<path d="M199 373 c-5 -57 1 -75 30 -90 34 -19 57 -16 57 7 0 11 -4 20 -8 20
-4 0 -7 10 -5 23 1 13 -3 21 -10 20 -7 -2 -12 3 -10 10 1 6 -6 11 -15 11 -10
-1 -18 2 -18 7 0 17 -20 9 -21 -8z"/>
</g>
</svg>
